<svg xmlns="http://www.w3.org/2000/svg" xmlns:xlink="http://www.w3.org/1999/xlink" width="1024" zoomAndPan="magnify" viewBox="0 0 768 767.999994" height="1024" preserveAspectRatio="xMidYMid meet" version="1.0"><defs><clipPath id="39d12f3af6"><path d="M 174.132812 199 L 594 199 L 594 567.625 L 174.132812 567.625 Z M 174.132812 199 " clip-rule="nonzero"/></clipPath><clipPath id="7438394bd5"><path d="M 387.722656 201.777344 L 593.058594 561.113281 C 593.828125 562.460938 593.820312 564.117188 593.042969 565.457031 C 592.261719 566.800781 590.828125 567.625 589.277344 567.625 L 178.722656 567.625 C 177.171875 567.625 175.738281 566.800781 174.957031 565.457031 C 174.179688 564.117188 174.171875 562.460938 174.941406 561.113281 L 380.277344 201.777344 C 381.042969 200.441406 382.460938 199.617188 384 199.617188 C 385.539062 199.617188 386.957031 200.441406 387.722656 201.777344 Z M 387.722656 201.777344 " clip-rule="nonzero"/></clipPath><clipPath id="f59de404d3"><path d="M 0.132812 0.441406 L 420 0.441406 L 420 368.625 L 0.132812 368.625 Z M 0.132812 0.441406 " clip-rule="nonzero"/></clipPath><clipPath id="a521bea0f3"><path d="M 213.722656 2.777344 L 419.058594 362.113281 C 419.828125 363.460938 419.820312 365.117188 419.042969 366.457031 C 418.261719 367.800781 416.828125 368.625 415.277344 368.625 L 4.722656 368.625 C 3.171875 368.625 1.738281 367.800781 0.957031 366.457031 C 0.179688 365.117188 0.171875 363.460938 0.941406 362.113281 L 206.277344 2.777344 C 207.042969 1.441406 208.460938 0.617188 210 0.617188 C 211.539062 0.617188 212.957031 1.441406 213.722656 2.777344 Z M 213.722656 2.777344 " clip-rule="nonzero"/></clipPath><clipPath id="57948f2849"><rect x="0" width="420" y="0" height="369"/></clipPath><clipPath id="2ea58e4127"><path d="M 312.292969 411.539062 L 455.707031 411.539062 L 455.707031 572.734375 L 312.292969 572.734375 Z M 312.292969 411.539062 " clip-rule="nonzero"/></clipPath><clipPath id="ce364cfdbb"><path d="M 0.292969 0.539062 L 143.707031 0.539062 L 143.707031 161.734375 L 0.292969 161.734375 Z M 0.292969 0.539062 " clip-rule="nonzero"/></clipPath><clipPath id="946d66a975"><rect x="0" width="144" y="0" height="162"/></clipPath><clipPath id="9ea3a298cd"><path d="M 307.820312 562.515625 L 318.320312 562.515625 L 318.320312 573.015625 L 307.820312 573.015625 Z M 307.820312 562.515625 " clip-rule="nonzero"/></clipPath><clipPath id="a038256a8c"><path d="M 0.820312 0.515625 L 11.238281 0.515625 L 11.238281 10.734375 L 0.820312 10.734375 Z M 0.820312 0.515625 " clip-rule="nonzero"/></clipPath><clipPath id="69e38da8a6"><rect x="0" width="12" y="0" height="12"/></clipPath><clipPath id="170f587f29"><path d="M 449.769531 562.515625 L 460.269531 562.515625 L 460.269531 573.015625 L 449.769531 573.015625 Z M 449.769531 562.515625 " clip-rule="nonzero"/></clipPath><clipPath id="7710bdbbef"><path d="M 0.769531 0.515625 L 10.988281 0.515625 L 10.988281 10.734375 L 0.769531 10.734375 Z M 0.769531 0.515625 " clip-rule="nonzero"/></clipPath><clipPath id="86dc5ea3ae"><rect x="0" width="12" y="0" height="12"/></clipPath><clipPath id="e025feadb2"><path d="M 317 405 L 451.660156 405 L 451.660156 478.371094 L 317 478.371094 Z M 317 405 " clip-rule="nonzero"/></clipPath><clipPath id="920da4487d"><path d="M 316.660156 411.539062 L 451.472656 411.539062 L 451.472656 443.320312 L 316.660156 443.320312 Z M 316.660156 411.539062 " clip-rule="nonzero"/></clipPath><clipPath id="b86a2fe954"><path d="M 451.4375 413.785156 L 451.4375 441.074219 C 451.4375 442.3125 450.433594 443.320312 449.191406 443.320312 L 318.90625 443.320312 C 317.664062 443.320312 316.660156 442.3125 316.660156 441.074219 L 316.660156 413.785156 C 316.660156 412.546875 317.664062 411.539062 318.90625 411.539062 L 449.191406 411.539062 C 450.433594 411.539062 451.4375 412.546875 451.4375 413.785156 Z M 451.4375 413.785156 " clip-rule="nonzero"/></clipPath><clipPath id="3cfa9e49c1"><path d="M 0.660156 0.539062 L 135.441406 0.539062 L 135.441406 32.320312 L 0.660156 32.320312 Z M 0.660156 0.539062 " clip-rule="nonzero"/></clipPath><clipPath id="10d2ae8dc3"><path d="M 135.4375 2.785156 L 135.4375 30.074219 C 135.4375 31.3125 134.433594 32.320312 133.191406 32.320312 L 2.90625 32.320312 C 1.664062 32.320312 0.660156 31.3125 0.660156 30.074219 L 0.660156 2.785156 C 0.660156 1.546875 1.664062 0.539062 2.90625 0.539062 L 133.191406 0.539062 C 134.433594 0.539062 135.4375 1.546875 135.4375 2.785156 Z M 135.4375 2.785156 " clip-rule="nonzero"/></clipPath><clipPath id="20704a569f"><rect x="0" width="136" y="0" height="33"/></clipPath><clipPath id="651ab4f2c6"><path d="M 286 350 L 481.714844 350 L 481.714844 456.453125 L 286 456.453125 Z M 286 350 " clip-rule="nonzero"/></clipPath><clipPath id="866ab4957e"><path d="M 294 354.289062 L 473.917969 354.289062 L 473.917969 452.535156 L 294 452.535156 Z M 294 354.289062 " clip-rule="nonzero"/></clipPath></defs><rect x="-76.8" width="921.6" fill="#ffffff" y="-76.799999" height="921.599993" fill-opacity="1"/><rect x="-76.8" width="921.6" fill="#122c4a" y="-76.799999" height="921.599993" fill-opacity="1"/><g clip-path="url(#39d12f3af6)"><g clip-path="url(#7438394bd5)"><g transform="matrix(1, 0, 0, 1, 174, 199)"><g clip-path="url(#57948f2849)"><g clip-path="url(#f59de404d3)"><g clip-path="url(#a521bea0f3)"><path fill="#fffefb" d="M -2.777344 -3.734375 L 423.402344 -3.734375 L 423.402344 368.625 L -2.777344 368.625 Z M -2.777344 -3.734375 " fill-opacity="1" fill-rule="nonzero"/></g></g></g></g></g></g><g clip-path="url(#2ea58e4127)"><g transform="matrix(1, 0, 0, 1, 312, 411)"><g clip-path="url(#946d66a975)"><g clip-path="url(#ce364cfdbb)"><path fill="#122c4a" d="M 0.292969 0.539062 L 143.707031 0.539062 L 143.707031 161.878906 L 0.292969 161.878906 Z M 0.292969 0.539062 " fill-opacity="1" fill-rule="nonzero"/></g></g></g></g><g clip-path="url(#9ea3a298cd)"><g transform="matrix(1, 0, 0, 1, 307, 562)"><g clip-path="url(#69e38da8a6)"><g clip-path="url(#a038256a8c)"><path fill="#122c4a" d="M 0.820312 5.046875 C 3.320312 5.046875 5.359375 3.007812 5.359375 0.507812 L 11.046875 0.507812 C 11.046875 6.144531 6.457031 10.734375 0.820312 10.734375 L 0.820312 5.046875 " fill-opacity="1" fill-rule="nonzero"/></g></g></g></g><g clip-path="url(#170f587f29)"><g transform="matrix(1, 0, 0, 1, 449, 562)"><g clip-path="url(#86dc5ea3ae)"><g clip-path="url(#7710bdbbef)"><path fill="#122c4a" d="M 10.988281 5.046875 C 8.484375 5.046875 6.449219 3.007812 6.449219 0.507812 L 0.757812 0.507812 C 0.757812 6.144531 5.347656 10.734375 10.988281 10.734375 L 10.988281 5.046875 " fill-opacity="1" fill-rule="nonzero"/></g></g></g></g><g clip-path="url(#e025feadb2)"><path fill="#47bba1" d="M 450.527344 443.523438 L 386.359375 477.894531 C 385.074219 478.582031 383.527344 478.582031 382.242188 477.894531 L 318.074219 443.523438 C 316.65625 442.761719 316.65625 440.726562 318.074219 439.964844 L 382.242188 405.59375 C 383.527344 404.90625 385.074219 404.90625 386.359375 405.59375 L 450.527344 439.964844 C 451.945312 440.726562 451.945312 442.761719 450.527344 443.523438 Z M 450.527344 443.523438 " fill-opacity="1" fill-rule="nonzero"/></g><path fill="#47bba1" d="M 375.285156 446.460938 L 363.285156 446.460938 L 359.667969 442.207031 L 365.132812 436.308594 C 370.742188 436.308594 375.285156 440.855469 375.285156 446.460938 Z M 403.464844 436.308594 L 398 442.207031 L 401.621094 446.460938 L 413.621094 446.460938 C 413.617188 440.855469 409.074219 436.308594 403.464844 436.308594 Z M 403.464844 436.308594 " fill-opacity="1" fill-rule="nonzero"/><path fill="#47bba1" d="M 384.300781 448.257812 C 382.121094 448.257812 380.140625 446.972656 379.25 444.988281 C 379.003906 444.445312 379.246094 443.808594 379.789062 443.566406 C 380.332031 443.324219 380.96875 443.566406 381.210938 444.105469 C 381.757812 445.320312 382.96875 446.105469 384.300781 446.105469 C 385.632812 446.105469 386.84375 445.320312 387.386719 444.105469 C 387.632812 443.5625 388.269531 443.324219 388.8125 443.566406 C 389.351562 443.808594 389.597656 444.445312 389.351562 444.988281 C 388.460938 446.972656 386.476562 448.257812 384.300781 448.257812 Z M 365.550781 439.136719 C 365.550781 438.167969 365.441406 437.222656 365.238281 436.3125 C 365.203125 436.3125 365.167969 436.308594 365.132812 436.308594 C 359.527344 436.308594 354.980469 440.855469 354.980469 446.460938 L 363.289062 446.460938 C 364.714844 444.375 365.550781 441.855469 365.550781 439.136719 Z M 403.882812 439.136719 C 403.882812 438.167969 403.773438 437.222656 403.570312 436.3125 C 403.535156 436.3125 403.5 436.308594 403.464844 436.308594 C 397.859375 436.308594 393.3125 440.855469 393.3125 446.460938 L 401.621094 446.460938 C 403.046875 444.375 403.882812 441.855469 403.882812 439.136719 Z M 403.882812 439.136719 " fill-opacity="1" fill-rule="nonzero"/><g clip-path="url(#920da4487d)"><g clip-path="url(#b86a2fe954)"><g transform="matrix(1, 0, 0, 1, 316, 411)"><g clip-path="url(#20704a569f)"><g clip-path="url(#3cfa9e49c1)"><g clip-path="url(#10d2ae8dc3)"><path fill="#47bba1" d="M 0.660156 0.539062 L 135.472656 0.539062 L 135.472656 32.320312 L 0.660156 32.320312 Z M 0.660156 0.539062 " fill-opacity="1" fill-rule="nonzero"/></g></g></g></g></g></g><g clip-path="url(#651ab4f2c6)"><path fill="#122c4a" d="M 479.980469 405.976562 L 386.984375 455.789062 C 385.121094 456.789062 382.878906 456.789062 381.011719 455.789062 L 288.015625 405.976562 C 285.957031 404.875 285.957031 401.921875 288.015625 400.820312 L 381.011719 351.007812 C 382.878906 350.007812 385.117188 350.007812 386.984375 351.007812 L 479.980469 400.820312 C 482.039062 401.921875 482.039062 404.875 479.980469 405.976562 Z M 479.980469 405.976562 " fill-opacity="1" fill-rule="nonzero"/></g><path fill="#122c4a" d="M 370.933594 410.234375 L 353.542969 410.234375 L 348.300781 404.066406 L 356.21875 395.519531 C 364.347656 395.519531 370.933594 402.109375 370.933594 410.234375 Z M 411.777344 395.519531 L 403.855469 404.066406 L 409.101562 410.234375 L 426.492188 410.234375 C 426.492188 402.109375 419.902344 395.519531 411.777344 395.519531 Z M 411.777344 395.519531 " fill-opacity="1" fill-rule="nonzero"/><path fill="#122c4a" d="M 384 412.835938 C 380.84375 412.835938 377.96875 410.976562 376.675781 408.101562 C 376.324219 407.3125 376.675781 406.390625 377.460938 406.039062 C 378.246094 405.6875 379.171875 406.035156 379.523438 406.824219 C 380.3125 408.582031 382.070312 409.714844 384 409.714844 C 385.925781 409.714844 387.683594 408.582031 388.472656 406.824219 C 388.824219 406.035156 389.75 405.6875 390.535156 406.039062 C 391.320312 406.390625 391.671875 407.3125 391.320312 408.101562 C 390.027344 410.976562 387.15625 412.835938 384 412.835938 Z M 356.824219 399.621094 C 356.824219 398.210938 356.664062 396.84375 356.371094 395.523438 C 356.320312 395.523438 356.269531 395.519531 356.21875 395.519531 C 348.09375 395.519531 341.507812 402.109375 341.507812 410.234375 L 353.542969 410.234375 C 355.613281 407.214844 356.824219 403.558594 356.824219 399.621094 Z M 412.378906 399.621094 C 412.378906 398.210938 412.21875 396.84375 411.925781 395.523438 C 411.875 395.523438 411.828125 395.519531 411.777344 395.519531 C 403.648438 395.519531 397.0625 402.109375 397.0625 410.234375 L 409.101562 410.234375 C 411.167969 407.214844 412.378906 403.558594 412.378906 399.621094 Z M 412.378906 399.621094 " fill-opacity="1" fill-rule="nonzero"/><g clip-path="url(#866ab4957e)"><path fill="#59ebcb" d="M 472.195312 405.761719 L 386.742188 451.539062 C 385.027344 452.457031 382.96875 452.457031 381.257812 451.539062 L 295.800781 405.761719 C 293.910156 404.75 293.910156 402.039062 295.800781 401.027344 L 381.257812 355.25 C 382.96875 354.332031 385.027344 354.332031 386.742188 355.25 L 472.195312 401.027344 C 474.089844 402.039062 474.089844 404.75 472.195312 405.761719 Z M 472.195312 405.761719 " fill-opacity="1" fill-rule="nonzero"/></g><path fill="#59ebcb" d="M 371.996094 409.675781 L 356.015625 409.675781 L 351.195312 404.007812 L 358.472656 396.15625 C 365.941406 396.15625 371.996094 402.210938 371.996094 409.675781 Z M 409.523438 396.15625 L 402.246094 404.007812 L 407.066406 409.675781 L 423.046875 409.675781 C 423.046875 402.210938 416.992188 396.15625 409.523438 396.15625 Z M 409.523438 396.15625 " fill-opacity="1" fill-rule="nonzero"/><path fill="#59ebcb" d="M 384 412.066406 C 381.097656 412.066406 378.457031 410.359375 377.269531 407.714844 C 376.945312 406.992188 377.269531 406.144531 377.992188 405.820312 C 378.714844 405.496094 379.5625 405.820312 379.886719 406.542969 C 380.613281 408.15625 382.226562 409.199219 384 409.199219 C 385.773438 409.199219 387.386719 408.15625 388.109375 406.542969 C 388.433594 405.820312 389.285156 405.496094 390.007812 405.820312 C 390.730469 406.144531 391.050781 406.992188 390.726562 407.714844 C 389.539062 410.359375 386.898438 412.066406 384 412.066406 Z M 359.027344 399.921875 C 359.027344 398.628906 358.882812 397.371094 358.613281 396.160156 C 358.566406 396.160156 358.519531 396.15625 358.472656 396.15625 C 351.007812 396.15625 344.953125 402.210938 344.953125 409.675781 L 356.015625 409.675781 C 357.914062 406.898438 359.027344 403.542969 359.027344 399.921875 Z M 410.078125 399.921875 C 410.078125 398.628906 409.933594 397.371094 409.664062 396.160156 C 409.617188 396.160156 409.570312 396.15625 409.523438 396.15625 C 402.058594 396.15625 396.003906 402.210938 396.003906 409.675781 L 407.066406 409.675781 C 408.964844 406.898438 410.078125 403.542969 410.078125 399.921875 Z M 410.078125 399.921875 " fill-opacity="1" fill-rule="nonzero"/></svg>